<?xml version="1.0" standalone="no"?>
<!DOCTYPE svg PUBLIC "-//W3C//DTD SVG 20010904//EN"
 "http://www.w3.org/TR/2001/REC-SVG-20010904/DTD/svg10.dtd">
<svg version="1.0" xmlns="http://www.w3.org/2000/svg"
 width="1002.000000pt" height="291.000000pt" viewBox="0 0 1002.000000 291.000000"
 preserveAspectRatio="xMidYMid meet">

<g transform="translate(0.000000,291.000000) scale(0.100000,-0.100000)"
fill="#000000" stroke="none">
<path d="M0 1455 l0 -1455 5010 0 5010 0 0 1028 -1 1027 -47 -96 c-26 -52
-164 -310 -306 -572 -205 -378 -262 -475 -272 -465 -6 7 -233 386 -504 841
-271 455 -494 826 -495 825 -1 -2 -264 -569 -585 -1262 l-584 -1259 -17 39
c-9 22 -267 596 -573 1276 -306 680 -556 1239 -556 1242 0 3 887 6 1970 6
l1970 0 0 140 0 140 -5010 0 -5010 0 0 -1455z m1922 520 c266 -35 504 -137
626 -268 l23 -24 -91 -17 c-125 -23 -254 -68 -390 -136 -201 -101 -353 -209
-728 -519 -255 -210 -336 -268 -462 -330 -90 -44 -99 -46 -180 -46 -71 0 -93
4 -134 25 -106 53 -115 119 -47 336 23 73 44 154 47 180 l5 49 -37 -40 c-71
-78 -222 -261 -291 -355 -87 -118 -143 -208 -205 -330 l-47 -95 -1 81 0 80 69
102 c96 142 180 247 332 417 72 81 123 144 112 141 -10 -3 -72 -21 -138 -41
-76 -23 -150 -39 -201 -42 -79 -6 -81 -5 -115 25 -33 29 -34 33 -34 99 1 85
22 128 107 218 307 329 1181 569 1780 490z"/>
<path d="M1455 1936 c-81 -35 -228 -166 -264 -233 l-11 -22 42 18 c24 10 88
33 143 51 88 29 106 39 151 84 27 28 77 66 110 83 l59 32 -100 0 c-60 0 -112
-5 -130 -13z"/>
<path d="M1728 1920 c-76 -28 -151 -72 -178 -106 -13 -15 -13 -16 5 -11 43 14
224 37 290 37 62 0 71 3 90 25 11 14 38 32 59 39 l40 14 -30 6 c-31 7 -172 26
-189 25 -5 0 -45 -13 -87 -29z"/>
<path d="M1210 1911 l-94 -18 -58 -62 c-31 -35 -66 -82 -78 -106 -21 -44 -48
-151 -39 -159 3 -3 43 15 91 39 79 42 88 49 123 110 36 62 113 143 180 192
l30 22 -30 0 c-16 -1 -73 -9 -125 -18z"/>
<path d="M2065 1883 c-92 -21 -112 -43 -37 -43 64 0 222 -26 302 -50 35 -11
66 -17 68 -15 6 6 -136 75 -197 96 -52 18 -93 22 -136 12z"/>
<path d="M920 1844 c-47 -14 -89 -29 -93 -33 -11 -11 18 -132 44 -184 19 -37
23 -40 30 -22 4 11 8 29 8 40 2 34 50 128 92 178 48 56 43 57 -81 21z"/>
<path d="M675 1761 c-55 -21 -117 -47 -138 -58 l-39 -19 37 -33 c20 -18 60
-42 88 -55 82 -36 246 -88 256 -81 6 3 -7 37 -29 78 -22 40 -46 101 -54 136
-8 34 -16 65 -18 66 -2 2 -48 -13 -103 -34z"/>
<path d="M1636 1779 c-60 -10 -111 -21 -113 -23 -2 -2 32 -6 76 -10 99 -8 218
-42 374 -106 66 -28 124 -50 130 -50 6 0 59 19 119 42 l110 43 -44 18 c-116
50 -383 108 -487 106 -31 0 -105 -9 -165 -20z"/>
<path d="M2215 1761 c44 -15 100 -38 124 -50 33 -17 52 -21 80 -16 l36 7 -29
15 c-31 16 -247 73 -275 73 -9 -1 20 -13 64 -29z"/>
<path d="M1364 1700 c-57 -8 -174 -50 -174 -62 0 -5 19 -8 43 -8 110 -1 228
-47 416 -163 67 -42 125 -77 127 -77 2 0 41 24 86 53 46 30 107 67 135 83 29
16 53 32 53 35 0 12 -288 118 -362 133 -80 17 -233 19 -324 6z"/>
<path d="M350 1603 c-118 -74 -221 -172 -255 -244 -43 -94 -38 -95 88 -29 61
32 156 72 209 89 86 27 267 65 353 73 26 3 22 6 -35 27 -95 35 -174 77 -213
111 -19 16 -39 30 -44 30 -5 0 -51 -26 -103 -57z"/>
<path d="M1095 1591 c-32 -8 -121 -57 -130 -71 -2 -4 53 -38 123 -76 170 -91
310 -174 368 -218 26 -20 53 -35 59 -32 6 2 59 41 118 87 l107 83 -77 50
c-116 74 -230 132 -305 155 -74 22 -217 34 -263 22z"/>
<path d="M949 1397 c25 -50 68 -137 94 -192 51 -106 127 -211 169 -234 25 -13
30 -10 142 84 64 54 115 103 113 109 -7 20 -170 123 -358 225 -103 56 -191
101 -197 101 -5 0 11 -42 37 -93z"/>
<path d="M682 1445 c-126 -20 -228 -44 -322 -77 -96 -33 -269 -125 -278 -147
-9 -23 28 -41 82 -41 64 0 142 19 304 71 119 39 132 46 212 112 120 100 117
97 100 96 -8 -1 -52 -7 -98 -14z"/>
<path d="M877 1433 c-10 -16 -27 -122 -42 -263 -26 -242 -62 -352 -147 -454
l-42 -49 80 5 c69 4 93 11 165 46 72 36 193 116 282 188 l26 21 -58 59 c-64
66 -108 140 -178 296 -53 118 -79 163 -86 151z"/>
<path d="M748 1371 c-110 -89 -115 -96 -121 -176 -4 -39 -24 -127 -47 -200
-63 -198 -62 -266 3 -289 24 -9 32 -6 68 30 48 46 93 136 113 225 9 35 24 141
35 234 11 94 23 185 27 203 4 17 4 32 1 32 -3 0 -39 -27 -79 -59z"/>
</g>
</svg>
