<svg width="1279" height="3529" viewBox="0 0 1279 3529" fill="none" xmlns="http://www.w3.org/2000/svg">
<path d="M3 8V379.48V4828H1279V379.48H264L3 8Z" fill="black" stroke="black" stroke-opacity="0.8" stroke-width="5"/>
<path fill-rule="evenodd" clip-rule="evenodd" d="M494.565 86.3438C496.129 84.5521 498.909 84.5521 500.473 86.3438L538.731 130.181L570.801 174.277C571.747 175.577 570.82 177.403 569.215 177.403H560.897L577 384H420L436.103 177.403H425.822C424.217 177.403 423.291 175.577 424.237 174.277L456.306 130.181L494.565 86.3438Z" fill="black"/>
<path d="M515.542 57.556L476.165 58.2433L478.468 190.155L479.155 229.532L481.458 361.444L520.834 360.757L518.532 228.845L517.896 192.421L515.542 57.556Z" fill="#D43F2E" fill-opacity="0.5"/>
<path d="M517.896 192.421L649.791 189.134L650.444 226.542L518.532 228.845L517.896 192.421Z" fill="#D43F2E" fill-opacity="0.5"/>
<path d="M479.155 229.532L347.243 231.835L346.556 192.458L478.468 190.155L479.155 229.532Z" fill="#D43F2E" fill-opacity="0.5"/>
<path fill-rule="evenodd" clip-rule="evenodd" d="M523.279 49.5433L468.152 50.5055L473.719 369.457L528.847 368.495L523.279 49.5433ZM519.41 53.5497L472.158 54.3744L472.64 81.9381L519.892 81.1134L519.41 53.5497ZM472.708 85.8758L519.96 85.051L520.441 112.615L473.189 113.44L472.708 85.8758ZM520.51 116.552L473.258 117.377L473.739 144.941L520.991 144.116L520.51 116.552ZM473.808 148.879L521.06 148.054L521.541 175.617L474.289 176.442L473.808 148.879ZM521.61 179.555L474.358 180.38L474.839 207.944L522.091 207.119L521.61 179.555ZM474.908 211.881L522.16 211.057L522.641 238.62L475.389 239.445L474.908 211.881ZM522.71 242.558L475.458 243.383L475.939 270.946L523.191 270.122L522.71 242.558ZM476.007 274.884L523.259 274.059L523.741 301.623L476.489 302.448L476.007 274.884ZM523.809 305.561L476.557 306.385L477.038 333.949L524.29 333.124L523.809 305.561ZM477.107 337.887L524.359 337.062L524.84 364.626L477.588 365.451L477.107 337.887Z" fill="black"/>
<path fill-rule="evenodd" clip-rule="evenodd" d="M338.543 184.72L339.505 239.847L658.456 234.28L657.494 179.153L338.543 184.72ZM342.549 188.589L343.374 235.841L370.937 235.36L370.113 188.108L342.549 188.589ZM374.875 235.291L374.05 188.039L401.614 187.558L402.439 234.81L374.875 235.291ZM405.552 187.489L406.376 234.741L433.94 234.26L433.115 187.008L405.552 187.489ZM437.878 234.191L437.053 186.939L464.617 186.458L465.442 233.71L437.878 234.191ZM468.554 186.39L469.379 233.642L496.943 233.16L496.118 185.908L468.554 186.39ZM500.881 233.092L500.056 185.84L527.619 185.359L528.444 232.611L500.881 233.092ZM531.557 185.29L532.382 232.542L559.946 232.061L559.121 184.809L531.557 185.29ZM563.883 231.992L563.059 184.74L590.622 184.259L591.447 231.511L563.883 231.992ZM594.56 184.19L595.385 231.442L622.948 230.961L622.124 183.709L594.56 184.19ZM626.886 230.892L626.061 183.64L653.625 183.159L654.45 230.411L626.886 230.892Z" fill="black"/>
</svg>
