<svg width="19" height="20" viewBox="0 0 19 20" fill="none" xmlns="http://www.w3.org/2000/svg">
<g id="instagram-logo">
<path id="Shape" fill-rule="evenodd" clip-rule="evenodd" d="M14.168 0.841309H5.16797C2.69319 0.841309 0.667969 2.95615 0.667969 5.54253V14.945C0.667969 17.5304 2.69319 19.6462 5.16797 19.6462H14.168C16.6427 19.6462 18.668 17.5304 18.668 14.945V5.54253C18.668 2.95615 16.6427 0.841309 14.168 0.841309ZM9.66797 14.1613C7.59662 14.1613 5.91789 12.4068 5.91789 10.2438C5.91789 8.07978 7.59662 6.32599 9.66797 6.32599C11.7384 6.32599 13.418 8.07978 13.418 10.2438C13.418 12.4068 11.7384 14.1613 9.66797 14.1613ZM13.418 5.15069C13.418 5.79969 13.9211 6.32599 14.543 6.32599C15.1649 6.32599 15.668 5.79969 15.668 5.15069C15.668 4.50168 15.1649 3.97538 14.543 3.97538C13.9211 3.97538 13.418 4.50168 13.418 5.15069Z" fill="black"/>
</g>
</svg>
