<svg width="1280" height="1100" viewBox="0 0 1280 1100" fill="none" xmlns="http://www.w3.org/2000/svg">
<path d="M363 613L195 741V846.971L1231.53 811.064L917 551L877 587L695.352 448L554.873 564.5L521.359 539.763L397.975 639.74L363 613Z" fill="#B7B7B7"/>
<path d="M712.262 656.862C711.889 655.752 711.851 655.172 712.098 654.214M709.975 657.48C709.343 655.204 709.357 654.064 709.903 652.221M707.346 658.191C706.473 654.907 706.401 653.107 707.088 649.973M704.945 658.839C704.778 658.196 704.613 657.668 704.418 657.187M702.918 654.742C703.261 655.176 703.54 655.561 703.775 655.936" stroke="#646464" stroke-linecap="round"/>
<path d="M834.464 635.242C834.428 634.072 834.559 633.506 835.072 632.66M832.097 635.174C832.148 632.812 832.491 631.725 833.547 630.118M829.374 635.095C829.486 631.699 829.937 629.955 831.5 627.153M826.889 635.022C826.914 634.359 826.909 633.805 826.86 633.288M826.131 630.515C826.334 631.029 826.49 631.478 826.607 631.905" stroke="#646464" stroke-linecap="round"/>
<path d="M990.132 709.52L967.65 698.759L957.141 693.728L951.913 691.226L937.3 684.231L874.662 654.248L867.593 650.863L859.737 647.103L842.876 639.032L794.54 615.895L748.452 637.621L734.963 643.98L716.978 652.458L701.218 659.888L623.678 696.441L597.286 708.882L552.86 729.825L804.657 888.875L990.132 709.52Z" fill="#646464"/>
<path fill-rule="evenodd" clip-rule="evenodd" d="M572.5 665C572.5 665 571.095 668.124 569.501 671.997C567.824 665.831 562.5 654 562.5 654C562.5 654 555 670.669 555 674.747C555 674.882 555.004 675.017 555.011 675.15L533.783 664.472L445.943 703.056C445.752 701.96 445.52 700.928 445.235 699.918C444.508 697.341 443.445 694.956 441.864 692.079C441.584 691.568 440.942 691.381 440.431 691.662C439.92 691.942 439.733 692.584 440.014 693.095C441.548 695.888 442.534 698.12 443.203 700.491C443.51 701.577 443.752 702.701 443.95 703.932L441.176 705.15C441.044 704.415 440.881 703.733 440.681 703.079C440.164 701.388 439.411 699.934 438.341 698.265C438.027 697.774 437.374 697.631 436.883 697.946C436.392 698.26 436.249 698.913 436.564 699.404C437.572 700.976 438.221 702.252 438.662 703.696C438.878 704.401 439.048 705.159 439.183 706.026L437.085 706.947C437.046 706.723 437 706.506 436.946 706.292C436.709 705.359 436.332 704.547 435.79 703.636C435.492 703.135 434.845 702.97 434.344 703.268C433.843 703.566 433.678 704.214 433.976 704.715C434.451 705.513 434.728 706.134 434.899 706.811C434.978 707.12 435.037 707.451 435.08 707.828L318.264 759.14V905.169H879.217L841 819L663.743 729.841C664.537 728.67 665 727.262 665 725.747C665 721.669 657.5 705 657.5 705C657.5 705 652.083 717.04 650.457 723.158L623.874 709.788C624.106 709.581 624.245 709.274 624.225 708.939C624.173 708.025 624.195 707.42 624.296 706.903C624.395 706.398 624.58 705.921 624.928 705.281C625.206 704.769 625.017 704.128 624.505 703.85C623.993 703.571 623.352 703.761 623.073 704.273C622.661 705.032 622.377 705.716 622.224 706.498C622.082 707.226 622.063 707.987 622.109 708.9L620.547 708.114C620.571 706.691 620.689 705.623 620.926 704.674C621.207 703.549 621.668 702.535 622.423 701.256C622.719 700.754 622.552 700.107 622.05 699.811C621.548 699.514 620.901 699.681 620.604 700.184C619.79 701.564 619.225 702.772 618.878 704.163C618.656 705.051 618.53 705.991 618.471 707.07L616.398 706.027C616.487 704.686 616.645 703.517 616.898 702.396C617.319 700.525 618.013 698.738 619.143 696.471C619.403 695.949 619.19 695.315 618.669 695.055C618.147 694.795 617.513 695.008 617.253 695.529C616.079 697.887 615.309 699.839 614.838 701.932C614.616 702.917 614.463 703.922 614.362 705.003L611.836 703.733C611.83 703.706 611.824 703.68 611.816 703.653C611.602 702.919 611.325 702.16 610.977 701.313C610.756 700.773 610.139 700.516 609.6 700.737C609.06 700.958 608.803 701.575 609.024 702.114L609.037 702.147C609.068 702.222 609.098 702.297 609.128 702.37L579.763 687.6C579.918 687.008 580 686.387 580 685.747C580 681.669 572.5 665 572.5 665Z" fill="#383838"/>
<path fill-rule="evenodd" clip-rule="evenodd" d="M-3.30664 779.556V1099.53H1280V453.198C1280 453.198 1220.31 521.799 1126.6 600.499L1107.31 538L1078.33 631.945L1060.91 575.504L1030.21 674.997C890.455 773.666 710.405 859.853 539.454 821C410.78 791.755 314.114 692.581 314.114 692.581C314.114 692.581 202.955 713.899 140.975 730.882C133.87 732.829 126.497 734.969 119.012 737.233L122.317 734.167L101.38 649L80.4424 734.167L92.6819 745.522C85.1646 747.972 77.7142 750.463 70.4844 752.927C74.7833 748.381 77.4176 742.257 77.4176 735.52C77.4176 721.492 51.9021 664.158 51.9021 664.158C51.9021 664.158 26.3866 721.492 26.3866 735.52C26.3866 747.894 35.2747 758.201 47.042 760.46V761.074C17.9739 771.362 -3.30664 779.556 -3.30664 779.556Z" fill="black"/>
<path d="M587.913 281.877H605.079C622.706 281.877 636.996 296.167 636.996 313.794C636.996 331.422 622.706 345.712 605.079 345.712H349.737C332.109 345.712 317.819 331.422 317.819 313.794C317.819 296.167 332.109 281.877 349.737 281.877H367.419C366.308 279.17 365.696 276.206 365.696 273.099C365.696 260.319 376.056 249.959 388.836 249.959H436.719C443.672 240.294 455.018 234 467.833 234H550.819C571.972 234 589.12 251.148 589.12 272.301C589.12 275.608 588.701 278.816 587.913 281.877Z" fill="black" fill-opacity="0.4"/>
<path d="M401.395 428.877H418.56C436.188 428.877 450.478 443.167 450.478 460.794C450.478 478.422 436.188 492.712 418.56 492.712H163.218C145.591 492.712 131.301 478.422 131.301 460.794C131.301 443.167 145.591 428.877 163.218 428.877H180.9C179.79 426.17 179.177 423.206 179.177 420.099C179.177 407.319 189.538 396.959 202.318 396.959H250.201C257.154 387.294 268.499 381 281.314 381H364.3C385.453 381 402.601 398.148 402.601 419.301C402.601 422.608 402.182 425.816 401.395 428.877Z" fill="black" fill-opacity="0.4"/>
<path d="M927.913 639.877H945.079C962.706 639.877 976.996 654.167 976.996 671.794C976.996 689.422 962.706 703.712 945.079 703.712H689.737C672.109 703.712 657.819 689.422 657.819 671.794C657.819 654.167 672.109 639.877 689.737 639.877H707.419C706.308 637.17 705.696 634.206 705.696 631.099C705.696 618.319 716.056 607.959 728.836 607.959H776.719C783.672 598.294 795.018 592 807.833 592H890.819C911.972 592 929.12 609.148 929.12 630.301C929.12 633.608 928.701 636.816 927.913 639.877Z" fill="black" fill-opacity="0.4"/>
<g clip-path="url(#clip0_552_7054)">
<path d="M1549.09 485.877H1566.26C1583.89 485.877 1598.18 500.167 1598.18 517.794C1598.18 535.422 1583.89 549.712 1566.26 549.712H1310.92C1293.29 549.712 1279 535.422 1279 517.794C1279 500.167 1293.29 485.877 1310.92 485.877H1328.6C1327.49 483.17 1326.88 480.206 1326.88 477.099C1326.88 464.319 1337.24 453.959 1350.02 453.959H1397.9C1404.85 444.294 1416.2 438 1429.01 438H1512C1533.15 438 1550.3 455.148 1550.3 476.301C1550.3 479.608 1549.88 482.816 1549.09 485.877Z" fill="black" fill-opacity="0.4"/>
</g>
<path fill-rule="evenodd" clip-rule="evenodd" d="M266.935 539.024C267.873 537.952 269.539 537.952 270.477 539.024L293.412 565.235L312.637 591.601C313.204 592.378 312.648 593.471 311.686 593.471H306.7L316.353 717H222.235L231.888 593.471H225.726C224.764 593.471 224.208 592.378 224.775 591.601L244 565.235L266.935 539.024Z" fill="black"/>
<path d="M279.477 521.514L255.951 521.925L257.326 600.737L257.737 624.262L259.113 703.074L282.638 702.663L281.263 623.852L280.883 602.09L279.477 521.514Z" fill="black" fill-opacity="0.5"/>
<path d="M280.883 602.09L359.684 600.127L360.074 622.476L281.263 623.852L280.883 602.09Z" fill="black" fill-opacity="0.5"/>
<path d="M257.737 624.262L178.925 625.638L178.515 602.112L257.326 600.737L257.737 624.262Z" fill="black" fill-opacity="0.5"/>
<path fill-rule="evenodd" clip-rule="evenodd" d="M284.099 516.727L251.163 517.302L254.489 707.861L287.425 707.286L284.099 516.727ZM281.788 519.121L253.557 519.614L253.844 536.082L282.075 535.589L281.788 519.121ZM253.885 538.434L282.116 537.941L282.404 554.41L254.173 554.902L253.885 538.434ZM282.445 556.762L254.214 557.255L254.501 573.723L282.732 573.23L282.445 556.762ZM254.542 576.076L282.773 575.583L283.061 592.051L254.83 592.544L254.542 576.076ZM283.102 594.403L254.871 594.896L255.158 611.364L283.389 610.872L283.102 594.403ZM255.199 613.717L283.43 613.224L283.718 629.692L255.487 630.185L255.199 613.717ZM283.759 632.045L255.528 632.538L255.815 649.006L284.046 648.513L283.759 632.045ZM255.856 651.358L284.087 650.865L284.375 667.334L256.144 667.826L255.856 651.358ZM284.416 669.686L256.185 670.179L256.472 686.647L284.703 686.154L284.416 669.686ZM256.513 689L284.744 688.507L285.032 704.975L256.801 705.468L256.513 689Z" fill="black"/>
<path fill-rule="evenodd" clip-rule="evenodd" d="M173.727 597.489L174.302 630.425L364.861 627.099L364.286 594.163L173.727 597.489ZM176.121 599.801L176.613 628.032L193.082 627.744L192.589 599.513L176.121 599.801ZM195.434 627.703L194.941 599.472L211.409 599.185L211.902 627.416L195.434 627.703ZM213.762 599.144L214.255 627.375L230.723 627.087L230.23 598.856L213.762 599.144ZM233.075 627.046L232.583 598.815L249.051 598.528L249.544 626.759L233.075 627.046ZM251.403 598.487L251.896 626.718L268.364 626.43L267.871 598.199L251.403 598.487ZM270.717 626.389L270.224 598.158L286.692 597.871L287.185 626.102L270.717 626.389ZM289.045 597.83L289.537 626.061L306.006 625.773L305.513 597.542L289.045 597.83ZM308.358 625.732L307.865 597.501L324.333 597.214L324.826 625.445L308.358 625.732ZM326.686 597.173L327.179 625.404L343.647 625.116L343.154 596.885L326.686 597.173ZM345.999 625.075L345.507 596.844L361.975 596.557L362.468 624.788L345.999 625.075Z" fill="black"/>
<rect width="12.7671" height="12.7671" transform="matrix(-0.707107 0.707107 0.707107 0.707107 1167.82 241.403)" fill="white" fill-opacity="0.6"/>
<rect width="12.7671" height="12.7671" transform="matrix(-0.707107 0.707107 0.707107 0.707107 724.167 144.054)" fill="white" fill-opacity="0.6"/>
<rect width="12.7671" height="12.7671" transform="matrix(-0.707107 0.707107 0.707107 0.707107 242.209 91.3901)" fill="white" fill-opacity="0.6"/>
<rect width="12.7671" height="12.7671" transform="matrix(-0.707107 0.707107 0.707107 0.707107 1241.24 712.19)" fill="white" fill-opacity="0.6"/>
<rect width="12.7671" height="12.7671" transform="matrix(-0.707107 0.707107 0.707107 0.707107 1009.83 562.176)" fill="white" fill-opacity="0.6"/>
<rect width="12.7671" height="12.7671" transform="matrix(-0.707107 0.707107 0.707107 0.707107 807.154 712.19)" fill="white" fill-opacity="0.6"/>
<rect width="12.7671" height="12.7671" transform="matrix(-0.707107 0.707107 0.707107 0.707107 535.854 241.403)" fill="white" fill-opacity="0.6"/>
<rect width="12.7671" height="12.7671" transform="matrix(-0.707107 0.707107 0.707107 0.707107 373.074 712.19)" fill="white" fill-opacity="0.6"/>
<rect width="12.7671" height="12.7671" transform="matrix(-0.707107 0.707107 0.707107 0.707107 101.773 241.403)" fill="white" fill-opacity="0.6"/>
<rect width="12.7671" height="12.7671" transform="matrix(-0.707107 0.707107 0.707107 0.707107 1226.87 443.656)" fill="black" fill-opacity="0.6"/>
<rect width="12.7671" height="12.7671" transform="matrix(-0.707107 0.707107 0.707107 0.707107 960.359 134.054)" fill="black" fill-opacity="0.6"/>
<rect width="12.7671" height="12.7671" transform="matrix(-0.707107 0.707107 0.707107 0.707107 752.894 325.561)" fill="black" fill-opacity="0.6"/>
<rect width="12.7671" height="12.7671" transform="matrix(-0.707107 0.707107 0.707107 0.707107 575.751 443.656)" fill="black" fill-opacity="0.6"/>
<rect width="12.7671" height="12.7671" transform="matrix(-0.707107 0.707107 0.707107 0.707107 318.813 325.561)" fill="black" fill-opacity="0.6"/>
<rect width="12.7671" height="12.7671" transform="matrix(-0.707107 0.707107 0.707107 0.707107 156.033 702.19)" fill="black" fill-opacity="0.6"/>
<defs>
<clipPath id="clip0_552_7054">
<rect width="1401" height="111" fill="white" transform="translate(-122 438)"/>
</clipPath>
</defs>
</svg>
