<svg width="19" height="19" viewBox="0 0 19 19" fill="none" xmlns="http://www.w3.org/2000/svg">
<g id="LinkedIn" clip-path="url(#clip0_808_834)">
<path id="Vector" d="M17.3392 0.243652H1.99672C1.64431 0.243652 1.30634 0.383645 1.05715 0.632834C0.807962 0.882023 0.667969 1.22 0.667969 1.5724V16.9149C0.667969 17.2673 0.807962 17.6053 1.05715 17.8545C1.30634 18.1037 1.64431 18.2437 1.99672 18.2437H17.3392C17.6916 18.2437 18.0296 18.1037 18.2788 17.8545C18.528 17.6053 18.668 17.2673 18.668 16.9149V1.5724C18.668 1.22 18.528 0.882023 18.2788 0.632834C18.0296 0.383645 17.6916 0.243652 17.3392 0.243652ZM6.03297 15.5774H3.32672V6.98115H6.03297V15.5774ZM4.67797 5.7899C4.37099 5.78817 4.07141 5.69555 3.81702 5.52372C3.56263 5.35189 3.36485 5.10855 3.24863 4.82442C3.1324 4.54029 3.10295 4.2281 3.16399 3.92724C3.22503 3.62639 3.37382 3.35036 3.59159 3.13399C3.80935 2.91762 4.08633 2.7706 4.38757 2.7115C4.68881 2.65239 5.0008 2.68385 5.28418 2.80189C5.56756 2.91994 5.80962 3.11928 5.97982 3.37476C6.15001 3.63025 6.24071 3.93042 6.24047 4.2374C6.24336 4.44293 6.20485 4.64693 6.12723 4.83726C6.0496 5.02758 5.93445 5.20033 5.78865 5.3452C5.64284 5.49008 5.46936 5.60411 5.27854 5.68052C5.08772 5.75692 4.88347 5.79412 4.67797 5.7899ZM16.008 15.5849H13.303V10.8887C13.303 9.50365 12.7142 9.07615 11.9542 9.07615C11.1517 9.07615 10.3642 9.68115 10.3642 10.9237V15.5849H7.65797V6.9874H10.2605V8.17865H10.2955C10.5567 7.6499 11.4717 6.74615 12.868 6.74615C14.378 6.74615 16.0092 7.6424 16.0092 10.2674L16.008 15.5849Z" fill="black"/>
</g>
<defs>
<clipPath id="clip0_808_834">
<rect width="18" height="18" fill="white" transform="translate(0.667969 0.243652)"/>
</clipPath>
</defs>
</svg>
