<svg width="1280" height="3164" viewBox="0 0 1280 3164" fill="none" xmlns="http://www.w3.org/2000/svg">
<path d="M1285 330H-7.00049V3423H1281.5L1285 330Z" fill="black"/>
<path d="M-193 165L-361 293V398.971L675.527 363.064L361 103L321 139L139.352 0L-1.12833 116.5L-34.6419 91.7634L-158.026 191.74L-193 165Z" fill="#B7B7B7"/>
<path d="M706.261 229.862C705.889 228.752 705.85 228.172 706.098 227.214M703.975 230.48C703.342 228.204 703.357 227.064 703.903 225.221M701.346 231.191C700.472 227.907 700.4 226.107 701.087 222.973M698.945 231.839C698.777 231.196 698.613 230.668 698.417 230.187M696.918 227.742C697.26 228.176 697.539 228.561 697.774 228.936" stroke="#646464" stroke-linecap="round"/>
<path d="M827.463 222.242C827.427 221.072 827.558 220.506 828.071 219.66M825.096 222.174C825.147 219.812 825.49 218.725 826.546 217.118M822.373 222.095C822.485 218.699 822.936 216.955 824.499 214.153M819.888 222.022C819.913 221.359 819.908 220.805 819.859 220.288M819.13 217.515C819.333 218.029 819.489 218.478 819.606 218.905" stroke="#646464" stroke-linecap="round"/>
<path d="M772.797 503.875L521 344.825L772.797 183L1064.14 369L772.797 503.875Z" fill="#616161"/>
<path fill-rule="evenodd" clip-rule="evenodd" d="M542.518 192L415.141 247.951C414.491 246.253 413.662 244.541 412.6 242.606C412.319 242.095 411.677 241.909 411.166 242.189C410.655 242.47 410.469 243.112 410.749 243.623C411.801 245.537 412.595 247.188 413.206 248.801L409.947 250.232C409.683 249.763 409.394 249.287 409.077 248.792C408.762 248.301 408.109 248.159 407.618 248.473C407.128 248.788 406.985 249.441 407.299 249.932C407.557 250.333 407.791 250.715 408.004 251.086L326.999 286.667V432.696H887.953L849.736 346.528L542.518 192Z" fill="#383838"/>
<path fill-rule="evenodd" clip-rule="evenodd" d="M-3.30908 335.556V655.531H1280V142C1280 142 890.537 456.794 539.451 377C410.777 347.755 314.111 248.581 314.111 248.581C314.111 248.581 260.9 258.786 207.581 270.699L187 204L163.209 281.102C160.252 281.837 157.348 282.569 154.511 283.298L113.998 152L64.9971 310.805C27.1682 323.821 -3.30908 335.556 -3.30908 335.556Z" fill="black"/>
</svg>
