<svg width="31" height="30" viewBox="0 0 31 30" fill="none" xmlns="http://www.w3.org/2000/svg">
<path d="M15.5 2.5C18.6266 5.92294 20.4034 10.365 20.5 15C20.4034 19.635 18.6266 24.0771 15.5 27.5M15.5 2.5C12.3734 5.92294 10.5966 10.365 10.5 15C10.5966 19.635 12.3734 24.0771 15.5 27.5M15.5 2.5C8.59644 2.5 3 8.09644 3 15C3 21.9036 8.59644 27.5 15.5 27.5M15.5 2.5C22.4036 2.5 28 8.09644 28 15C28 21.9036 22.4036 27.5 15.5 27.5M3.62502 11.25H27.375M3.625 18.75H27.375" stroke="white" stroke-width="2" stroke-linecap="round" stroke-linejoin="round"/>
</svg>
