<svg width="160" height="139" viewBox="0 0 160 139" fill="none" xmlns="http://www.w3.org/2000/svg">
<g id="Stump">
<g id="Log">
<path id="Vector 269" d="M39.1974 34.9741V85.4728C39.1974 85.8541 38.9926 86.206 38.661 86.3942L3.20438 106.518C2.27937 107.043 2.62475 108.469 3.68613 108.538C23.4779 109.824 30.6395 113.37 62.1241 97.1541C62.6243 96.8964 63.2601 97.0667 63.545 97.5519C74.7108 116.569 81.5453 131.639 96.7356 137.539C97.3724 137.786 98.0598 137.348 98.125 136.668C99.3624 123.771 98.9982 116.126 93.9576 103.285C93.833 102.968 93.8729 102.588 94.0671 102.308C106.806 83.9102 142.921 119.391 158.229 105.574C158.733 105.12 158.613 104.312 158.022 103.978L121.272 83.1954C120.959 83.0184 120.758 82.6947 120.736 82.3358L117.857 33.6499M39.1974 34.9741C39.1974 34.9741 45.2889 53.5135 78.3949 52.1892C111.501 50.8649 117.857 33.6499 117.857 33.6499M39.1974 34.9741C39.1974 34.9741 38.6677 29.6772 65.4173 25.1748C92.1669 20.6723 117.857 33.6499 117.857 33.6499" stroke="black" stroke-width="2.11878"/>
<path id="Vector 270" d="M79.6132 47.6425C101.991 46.9037 109.117 38.687 110.799 36.1335C111.062 35.7349 110.882 35.2363 110.436 35.0662C106.45 33.546 88.1639 27.1432 69.2138 29.7757C49.9881 32.4465 48.3476 35.5401 48.2136 36.1495C48.1979 36.221 48.2131 36.2836 48.2436 36.3502C48.7605 37.4802 54.445 48.4734 79.6132 47.6425Z" stroke="black" stroke-width="1.27341"/>
<path id="Vector 271" d="M80.9595 42.3647C97.2721 41.9751 103.325 37.9464 105.206 36.1802C105.613 35.7984 105.419 35.2064 104.88 35.0622C101.012 34.0274 87.1201 30.7105 72.7449 32.1551C58.4425 33.5924 56.4603 35.244 56.1896 35.7223C56.1425 35.8056 56.1686 35.8968 56.2222 35.976C56.8411 36.8906 61.6133 42.8267 80.9595 42.3647Z" stroke="black" stroke-width="1.27341"/>
<path id="Vector 272" d="M79.6724 39.7276C87.9511 39.5347 91.5429 37.7203 92.9515 36.6513C93.4009 36.3102 93.2206 35.7233 92.6729 35.5876C89.9754 34.9194 82.6274 33.3686 75.0407 34.1123C67.4576 34.8557 66.0171 35.7033 65.7453 36.0205C65.6819 36.0945 65.7058 36.1905 65.7642 36.2685C66.2488 36.9163 69.1033 39.9738 79.6724 39.7276Z" stroke="black" stroke-width="0.741573"/>
</g>
<g id="Wrinkles LOL">
<path id="Vector 273" d="M88.9893 66.0718C85.8325 79.4539 85.7918 87.7374 88.9893 103.945" stroke="black" stroke-width="1.32424"/>
<path id="Vector 276" d="M68.3896 64.1412C74.4641 76.4761 76.3594 84.5399 76.8742 101.052" stroke="black" stroke-width="1.32424"/>
<path id="Vector 274" d="M103.179 68.7199C104.525 77.8484 106.544 83.0297 112.528 92.3639" stroke="black" stroke-width="1.32424"/>
<path id="Vector 277" d="M54.4631 89.0874C48.209 95.8608 43.6307 99.0173 33.4615 103.418" stroke="black" stroke-width="1.32424"/>
<path id="Vector 275" d="M110.41 53.8887C109.28 66.8442 112.793 75.0765 119.68 86.465" stroke="black" stroke-width="1.32424"/>
<path id="Vector 278" d="M44.7833 57.0667C48.787 69.4397 47.2069 78.25 43.047 90.8916" stroke="black" stroke-width="1.32424"/>
</g>
<g id="Plant">
<path id="Vector 10" d="M85.4102 15.4001C81.0652 20.3116 79.803 22.8908 79.2714 28.4508C78.702 34.4053 78.4562 23.643 78.427 22.2369C78.425 22.1385 78.4517 22.0411 78.502 21.9566C80.8261 18.0468 82.2303 16.317 84.8075 14.6487C85.3075 14.325 85.8048 14.954 85.4102 15.4001Z" fill="black"/>
<path id="Vector 23" d="M70.4298 10.6601C77.1835 18.1597 78.4993 31.4194 78.6577 36.6751C78.6711 37.1205 79.1467 37.3098 79.3982 36.9419C80.0138 36.0415 80.7624 34.3956 80.5135 31.9067C80.1394 28.1655 78.2023 13.7516 70.9015 9.91544C70.4145 9.65957 70.0617 10.2514 70.4298 10.6601Z" fill="black"/>
<path id="Vector 11" d="M91.7428 7.28951C85.9745 8.60955 81.2332 10.5667 79.2367 15.9777C79.0262 16.5484 79.8051 16.8356 80.1492 16.334C83.7064 11.1484 88.5307 9.4868 90.2223 9.31045C92.1869 9.10565 89.6718 11.1964 90.1089 13.7343C90.1198 13.7971 90.1215 13.8628 90.1106 13.9255C89.7276 16.1251 88.704 17.0945 87.3697 18.4222C86.7281 19.0607 85.2731 19.8618 83.92 20.528C83.3837 20.7921 83.5834 21.5007 84.1673 21.3724C86.3042 20.9031 88.956 19.9879 90.1378 18.2411C91.9638 15.5423 91.7646 10.8136 92.494 8.1746C92.6187 7.72342 92.1991 7.18509 91.7428 7.28951Z" fill="black"/>
<path id="Vector 24" d="M61.0345 0.78215C68.0158 2.10924 74.1466 4.78142 77.076 11.111C77.3424 11.6866 76.4138 12.0786 76.0245 11.578C72.3559 6.86108 66.7646 3.78536 63.7913 3.34209C63.4991 3.29852 63.2562 3.53105 63.2619 3.82646C63.2758 4.55059 63.344 5.91265 63.6353 7.31825C64.1975 10.0317 63.2199 11.4011 66.0804 14.0142C67.4188 15.2369 69.5604 16.2618 71.4604 17.0063C72.0407 17.2336 71.881 18.0479 71.2659 17.9476C68.5665 17.5075 65.2991 16.5707 63.8221 14.5767C61.3099 11.185 62.4172 5.71912 60.4321 1.63982C60.2278 1.21995 60.5758 0.694949 61.0345 0.78215Z" fill="black"/>
</g>
</g>
</svg>
