<svg width="21" height="18" viewBox="0 0 21 18" fill="none" xmlns="http://www.w3.org/2000/svg">
<g id="bxl-twitter">
<path id="Path" d="M18.301 5.06164C18.314 5.24447 18.314 5.42625 18.314 5.60803C18.314 11.1711 14.261 17.5815 6.85397 17.5815C4.57197 17.5815 2.45197 16.891 0.667969 15.6916C0.991969 15.7303 1.30397 15.7439 1.64097 15.7439C3.52397 15.7439 5.25697 15.0794 6.64197 13.9459C4.87097 13.9073 3.38697 12.6954 2.87497 11.028C3.12397 11.0667 3.37397 11.0928 3.63597 11.0928C3.99697 11.0928 4.35997 11.0406 4.69697 10.9497C2.84997 10.5589 1.46697 8.86546 1.46697 6.8199V6.76767C2.00397 7.08004 2.62697 7.2754 3.28697 7.30152C2.20197 6.54723 1.49097 5.25701 1.49097 3.79754C1.49097 3.01609 1.68997 2.29941 2.03897 1.67467C4.02197 4.22692 7.00297 5.89533 10.345 6.07815C10.283 5.76474 10.245 5.43983 10.245 5.11388C10.245 2.79461 12.041 0.905762 14.273 0.905762C15.433 0.905762 16.48 1.41349 17.216 2.23464C18.126 2.05182 18.998 1.69975 19.772 1.21813C19.473 2.19494 18.836 3.01609 18.001 3.5374C18.812 3.44547 19.598 3.21145 20.32 2.8855C19.772 3.71918 19.087 4.46198 18.301 5.06164Z" fill="black"/>
</g>
</svg>
